# xmcd
# 
# Track frame offsets:
#     150
#     15405
#     27810
#     38897
#     53890
#     69620
#     79055
#     91010
#     105095
#     119890
#     134520
#     146697
#     158895
#     173720
#     183175
#     195890
#     206555
#     217872
# 
# Disc length: 3139
# 
# Revision: 1
# Processed by: cddbd v1.5.2PL0 Copyright (c) Steve Scherf et al.
# Submitted via: BonkEnc v1.0
# 
DISCID=e90c4112
DTITLE=Billie Jo Spears - Gold
DYEAR=1995
DGENRE=country
TTITLE0=Blanket on the ground
TTITLE1=Stay away from the apple tree
TTITLE2=If you want me
TTITLE3=Midnight love
TTITLE4=Silver wings and golden rings
TTITLE5=Never did like whiskey
TTITLE6=Marty Gray
TTITLE7=Wishing won´t make it so
TTITLE8=Crazy
TTITLE9=Mr. Walker, it´s all over
TTITLE10=Misty blue
TTITLE11=Apologizing roses
TTITLE12=We´ve still got love
TTITLE13=Right or wrong
TTITLE14=I´m not easy
TTITLE15=What I´ve got in mind
TTITLE16=Lonely hearts club
TTITLE17=Why don´t we go dancing
EXTD=
EXTT0=
EXTT1=
EXTT2=
EXTT3=
EXTT4=
EXTT5=
EXTT6=
EXTT7=
EXTT8=
EXTT9=
EXTT10=
EXTT11=
EXTT12=
EXTT13=
EXTT14=
EXTT15=
EXTT16=
EXTT17=
PLAYORDER=
